<svg width="377" height="76" viewBox="0 0 377 76" fill="none" xmlns="http://www.w3.org/2000/svg">
<path d="M0.301758 32L0.577148 31.1509C2.0765 31.1509 3.20866 30.8449 3.97363 30.2329C4.75391 29.6056 5.39648 28.4429 5.90137 26.7446L11.5469 7.12305C11.9141 5.83789 12.0977 4.78223 12.0977 3.95605C12.0977 3.25228 11.8835 2.7321 11.4551 2.39551C11.0267 2.05892 9.93278 1.83708 8.17334 1.72998L8.44873 0.880859H19.0972C24.7121 0.880859 28.7588 2.02067 31.2373 4.30029C33.7311 6.56462 34.978 9.74691 34.978 13.8472C34.978 16.7388 34.4043 19.1637 33.2568 21.1221C31.0078 24.9469 28.3381 27.7161 25.2476 29.4297C22.1571 31.1432 18.1868 32 13.3369 32H0.301758ZM19.7397 2.7168L12.9009 26.3086C12.5796 27.3949 12.4189 28.1751 12.4189 28.6494C12.4189 29.0778 12.5949 29.422 12.9468 29.6821C13.4058 30.034 14.0866 30.21 14.9893 30.21C17.1465 30.21 19.0742 29.5368 20.7725 28.1904C22.945 26.4616 24.5973 24.1361 25.7295 21.2139C26.877 18.2917 27.4507 15.3924 27.4507 12.5161C27.4507 10.4354 27.1217 8.6224 26.4639 7.07715C25.806 5.5319 24.7886 4.35384 23.4116 3.54297C22.4478 2.99219 21.2238 2.7168 19.7397 2.7168ZM48.4786 23.394C48.3409 24.3885 48.272 25.207 48.272 25.8496C48.272 26.9971 48.601 27.915 49.2589 28.6035C49.932 29.292 50.8271 29.6362 51.9439 29.6362C53.0149 29.6362 54.0859 29.3761 55.1568 28.856C56.2431 28.3358 57.4976 27.4255 58.9205 26.125L59.609 26.7446C57.8495 28.8713 56.136 30.3859 54.4683 31.2886C52.8007 32.1912 50.9571 32.6426 48.9376 32.6426C46.3826 32.6426 44.6155 32.0306 43.6363 30.8066C42.6571 29.5827 42.1676 28.1675 42.1676 26.561C42.1676 24.0519 42.8943 21.5428 44.3477 19.0337C45.8165 16.5246 47.8054 14.5127 50.3145 12.998C52.8389 11.4834 55.371 10.7261 57.9107 10.7261C59.1959 10.7261 60.1674 11.0321 60.8253 11.644C61.4831 12.256 61.8121 13.0286 61.8121 13.9619C61.8121 15.0788 61.4908 16.165 60.8482 17.2207C59.9609 18.6589 58.844 19.8216 57.4976 20.709C56.1513 21.5811 54.6443 22.2466 52.9766 22.7056C51.8598 23.0116 50.3604 23.241 48.4786 23.394ZM48.6851 22.2007C50.0315 22.0018 51.0719 21.734 51.8062 21.3975C52.5559 21.0456 53.2826 20.4948 53.9864 19.7451C54.7055 18.9801 55.3251 18.0239 55.8453 16.8765C56.3655 15.7137 56.6256 14.6274 56.6256 13.6177C56.6256 13.1893 56.5032 12.8527 56.2584 12.6079C56.0289 12.3631 55.7305 12.2407 55.3634 12.2407C54.629 12.2407 53.8028 12.7533 52.8848 13.7783C51.2019 15.6449 49.802 18.4523 48.6851 22.2007ZM79.673 10.7261L75.2209 26.3315C75.0067 27.0506 74.8996 27.5479 74.8996 27.8232C74.8996 27.9609 74.9531 28.068 75.0602 28.1445C75.1826 28.2669 75.328 28.3281 75.4962 28.3281C76.2 28.3281 77.1409 27.7008 78.319 26.4463C80.0019 24.6257 81.769 22.0094 83.6203 18.5977L85.7086 11.5752L91.5148 11.3687L87.1086 26.5151C86.7414 27.8003 86.5578 28.5347 86.5578 28.7183C86.5578 28.8407 86.6113 28.9707 86.7184 29.1084C86.8408 29.2308 86.9632 29.292 87.0856 29.292C87.2998 29.292 87.5063 29.2002 87.7052 29.0166C88.256 28.5729 88.9827 27.6779 89.8854 26.3315L90.6657 26.8823C88.5391 30.7225 86.1982 32.6426 83.6432 32.6426C82.6947 32.6426 81.945 32.4054 81.3942 31.9312C80.8587 31.4416 80.591 30.8066 80.591 30.0264C80.591 29.2002 80.7822 28.1522 81.1647 26.8823L82.2892 23.0039C80.3003 25.8955 78.8545 27.8462 77.9518 28.856C76.5749 30.3706 75.4121 31.3804 74.4635 31.8853C73.5303 32.3901 72.6352 32.6426 71.7785 32.6426C70.9676 32.6426 70.2638 32.3442 69.6671 31.7476C69.0858 31.1509 68.7951 30.3936 68.7951 29.4756C68.7951 28.6953 68.9863 27.6473 69.3688 26.3315L71.9621 17.1519C72.3905 15.6525 72.6046 14.6427 72.6046 14.1226C72.6046 13.8931 72.5434 13.6942 72.4211 13.5259C72.2987 13.3423 72.0921 13.2046 71.8014 13.1128C71.526 13.0057 71.0058 12.9521 70.2409 12.9521L70.4704 12.0801L78.2961 10.7261H79.673ZM111.992 5.12646L110.156 11.3687H113.162L112.359 14.0078H109.399L105.566 27.3184C105.321 28.1445 105.199 28.7718 105.199 29.2002C105.199 29.3991 105.268 29.575 105.406 29.728C105.543 29.8657 105.696 29.9346 105.864 29.9346C106.125 29.9346 106.392 29.8275 106.668 29.6133C107.371 29.0778 108.19 28.1445 109.123 26.8135L109.927 27.3184C108.871 29.1543 107.708 30.5007 106.438 31.3574C105.168 32.2142 103.921 32.6426 102.698 32.6426C101.657 32.6426 100.846 32.3825 100.265 31.8623C99.6988 31.3268 99.4158 30.6536 99.4158 29.8428C99.4158 28.9554 99.6147 27.8156 100.012 26.4233L103.638 14.0078H100.517L100.976 12.3096C102.935 11.5905 104.587 10.749 105.933 9.78516C107.28 8.82129 108.901 7.26839 110.799 5.12646H111.992ZM134.259 10.7261L133.249 17.8174H132.4C132.278 15.9814 131.712 14.5356 130.702 13.48C129.708 12.4243 128.637 11.8965 127.489 11.8965C126.785 11.8965 126.204 12.103 125.745 12.5161C125.286 12.9292 125.056 13.4264 125.056 14.0078C125.056 14.4974 125.156 14.9564 125.355 15.3848C125.554 15.8132 125.997 16.3945 126.686 17.1289C129.103 19.7298 130.572 21.5199 131.092 22.499C131.612 23.4782 131.872 24.5262 131.872 25.6431C131.872 26.8517 131.566 27.9992 130.954 29.0854C130.342 30.1564 129.424 31.0208 128.201 31.6787C126.992 32.3213 125.73 32.6426 124.414 32.6426C123.527 32.6426 122.433 32.4666 121.132 32.1147C120.275 31.87 119.633 31.7476 119.204 31.7476C118.822 31.7476 118.524 31.8088 118.309 31.9312C118.095 32.0382 117.858 32.2754 117.598 32.6426H116.749L117.873 25.0005H118.608C119.143 26.8517 119.64 28.1751 120.099 28.9707C120.574 29.751 121.201 30.3783 121.981 30.8525C122.762 31.3115 123.511 31.541 124.23 31.541C125.072 31.541 125.768 31.2809 126.319 30.7607C126.869 30.2253 127.145 29.5903 127.145 28.856C127.145 28.1369 126.961 27.4408 126.594 26.7676C126.242 26.0944 125.416 25.0464 124.116 23.6235C122.326 21.6805 121.147 20.1812 120.581 19.1255C120.184 18.3605 119.985 17.4884 119.985 16.5093C119.985 14.8569 120.581 13.48 121.775 12.3784C122.983 11.2769 124.674 10.7261 126.847 10.7261C127.795 10.7261 128.958 10.8944 130.335 11.231C131.023 11.3993 131.574 11.4834 131.987 11.4834C132.584 11.4834 133.066 11.231 133.433 10.7261H134.259ZM157.903 26.4692L158.592 27.0889C157.108 28.8636 155.647 30.1641 154.208 30.9902C152.296 32.0918 150.315 32.6426 148.265 32.6426C146.888 32.6426 145.664 32.3519 144.593 31.7705C143.537 31.1738 142.757 30.3477 142.252 29.292C141.747 28.221 141.495 27.1271 141.495 26.0103C141.495 23.5011 142.175 21.0379 143.537 18.6206C144.899 16.188 146.696 14.2679 148.93 12.8604C151.164 11.4375 153.359 10.7261 155.517 10.7261C157.245 10.7261 158.546 11.1086 159.418 11.8735C160.29 12.6385 160.726 13.5871 160.726 14.7192C160.726 15.7443 160.397 16.6164 159.739 17.3354C159.081 18.0545 158.347 18.4141 157.536 18.4141C156.832 18.4141 156.243 18.1846 155.769 17.7256C155.31 17.2666 155.08 16.7235 155.08 16.0962C155.08 15.27 155.494 14.5509 156.32 13.939C156.886 13.5106 157.169 13.1357 157.169 12.8145C157.169 12.5391 157.054 12.3172 156.825 12.1489C156.519 11.9041 156.121 11.7817 155.631 11.7817C154.346 11.7817 153.137 12.3019 152.005 13.3423C150.506 14.7192 149.358 16.4634 148.563 18.5747C147.767 20.686 147.37 22.6903 147.37 24.5874C147.37 26.0868 147.775 27.2878 148.586 28.1904C149.397 29.0778 150.361 29.5215 151.477 29.5215C152.457 29.5215 153.512 29.269 154.644 28.7642C155.792 28.2593 156.878 27.4943 157.903 26.4692ZM181.754 0.169434L175.787 20.8467C177.853 17.8021 179.352 15.7443 180.285 14.6733C181.677 13.1281 182.871 12.0877 183.865 11.5522C184.875 11.0015 185.839 10.7261 186.757 10.7261C187.537 10.7261 188.203 11.0244 188.753 11.6211C189.319 12.2025 189.603 12.9827 189.603 13.9619C189.603 14.7881 189.419 15.8208 189.052 17.0601L186.137 26.8364C185.877 27.6932 185.747 28.2669 185.747 28.5576C185.747 28.6953 185.801 28.8254 185.908 28.9478C186.015 29.0549 186.137 29.1084 186.275 29.1084C186.458 29.1084 186.642 29.0319 186.826 28.8789C187.315 28.4964 187.835 27.8844 188.386 27.043C188.524 26.8288 188.746 26.5075 189.052 26.0791L189.947 26.584C188.631 28.7565 187.384 30.2482 186.206 31.0591C185.028 31.87 183.911 32.2754 182.855 32.2754C181.907 32.2754 181.165 32.0306 180.629 31.541C180.094 31.0514 179.826 30.4395 179.826 29.7051C179.826 29.0319 180.01 28.0757 180.377 26.8364L183.223 17.0601C183.406 16.3869 183.498 15.8973 183.498 15.5913C183.498 15.423 183.429 15.2777 183.291 15.1553C183.169 15.0176 183.024 14.9487 182.855 14.9487C182.305 14.9487 181.547 15.4077 180.583 16.3257C178.595 18.2075 176.606 21.1603 174.617 25.1841L172.574 32H166.883L174.41 6.06738C174.716 4.96582 174.869 4.1779 174.869 3.70361C174.869 3.32113 174.716 3.02279 174.41 2.80859C174.012 2.5179 173.4 2.39551 172.574 2.44141L172.735 1.52344L180.377 0.169434H181.754ZM204.985 23.394C204.847 24.3885 204.778 25.207 204.778 25.8496C204.778 26.9971 205.107 27.915 205.765 28.6035C206.438 29.292 207.333 29.6362 208.45 29.6362C209.521 29.6362 210.592 29.3761 211.663 28.856C212.749 28.3358 214.004 27.4255 215.427 26.125L216.115 26.7446C214.356 28.8713 212.642 30.3859 210.975 31.2886C209.307 32.1912 207.463 32.6426 205.444 32.6426C202.889 32.6426 201.122 32.0306 200.143 30.8066C199.163 29.5827 198.674 28.1675 198.674 26.561C198.674 24.0519 199.401 21.5428 200.854 19.0337C202.323 16.5246 204.312 14.5127 206.821 12.998C209.345 11.4834 211.877 10.7261 214.417 10.7261C215.702 10.7261 216.674 11.0321 217.332 11.644C217.989 12.256 218.318 13.0286 218.318 13.9619C218.318 15.0788 217.997 16.165 217.355 17.2207C216.467 18.6589 215.35 19.8216 214.004 20.709C212.658 21.5811 211.151 22.2466 209.483 22.7056C208.366 23.0116 206.867 23.241 204.985 23.394ZM205.191 22.2007C206.538 22.0018 207.578 21.734 208.313 21.3975C209.062 21.0456 209.789 20.4948 210.493 19.7451C211.212 18.9801 211.831 18.0239 212.352 16.8765C212.872 15.7137 213.132 14.6274 213.132 13.6177C213.132 13.1893 213.01 12.8527 212.765 12.6079C212.535 12.3631 212.237 12.2407 211.87 12.2407C211.135 12.2407 210.309 12.7533 209.391 13.7783C207.708 15.6449 206.308 18.4523 205.191 22.2007ZM268.039 0.169434L265.446 10.7261H264.689C264.52 9.07373 264.222 7.75033 263.794 6.75586C263.151 5.31771 262.294 4.2085 261.223 3.42822C260.168 2.64795 259.02 2.25781 257.781 2.25781C256.588 2.25781 255.54 2.7168 254.637 3.63477C253.75 4.53743 253.306 5.5625 253.306 6.70996C253.306 7.84212 253.612 8.95898 254.224 10.0605C254.851 11.1468 256.32 12.7915 258.63 14.9946C260.481 16.7541 261.721 18.2687 262.348 19.5386C262.99 20.8084 263.312 22.1854 263.312 23.6694C263.312 25.3371 262.868 26.8747 261.981 28.2822C261.093 29.6898 259.801 30.7837 258.102 31.564C256.419 32.3289 254.507 32.7114 252.365 32.7114C251.049 32.7114 249.389 32.5125 247.385 32.1147C245.396 31.7323 244.073 31.541 243.415 31.541C242.895 31.541 242.428 31.6252 242.015 31.7935C241.602 31.9465 241.089 32.2524 240.477 32.7114H239.582L242.359 20.8467H243.231C243.43 22.9274 243.851 24.7021 244.493 26.1709C245.136 27.6243 246.054 28.7642 247.247 29.5903C248.441 30.4012 249.802 30.8066 251.332 30.8066C252.847 30.8066 254.109 30.3094 255.119 29.3149C256.144 28.3052 256.656 27.1271 256.656 25.7808C256.656 24.6333 256.366 23.5317 255.784 22.4761C255.218 21.4204 253.91 19.8828 251.86 17.8633C249.825 15.8438 248.418 14.0384 247.637 12.4473C247.071 11.2692 246.788 10.0146 246.788 8.68359C246.788 6.37337 247.699 4.37679 249.519 2.69385C251.34 1.0109 253.719 0.169434 256.656 0.169434C257.988 0.169434 259.739 0.467773 261.912 1.06445C263.182 1.41634 264.077 1.59229 264.597 1.59229C265.041 1.59229 265.438 1.50049 265.79 1.31689C266.142 1.118 266.555 0.735514 267.03 0.169434H268.039ZM285.418 5.12646L283.582 11.3687H286.589L285.785 14.0078H282.825L278.992 27.3184C278.748 28.1445 278.625 28.7718 278.625 29.2002C278.625 29.3991 278.694 29.575 278.832 29.728C278.97 29.8657 279.123 29.9346 279.291 29.9346C279.551 29.9346 279.819 29.8275 280.094 29.6133C280.798 29.0778 281.616 28.1445 282.55 26.8135L283.353 27.3184C282.297 29.1543 281.134 30.5007 279.865 31.3574C278.595 32.2142 277.348 32.6426 276.124 32.6426C275.083 32.6426 274.273 32.3825 273.691 31.8623C273.125 31.3268 272.842 30.6536 272.842 29.8428C272.842 28.9554 273.041 27.8156 273.439 26.4233L277.065 14.0078H273.944L274.403 12.3096C276.361 11.5905 278.013 10.749 279.36 9.78516C280.706 8.82129 282.328 7.26839 284.225 5.12646H285.418ZM301.328 10.7261L297.863 23.6235C300.709 17.3354 302.851 13.4647 304.289 12.0112C305.13 11.1545 306.018 10.7261 306.951 10.7261C307.594 10.7261 308.114 10.9632 308.512 11.4375C308.909 11.8965 309.108 12.5544 309.108 13.4111C309.108 14.8952 308.749 16.1421 308.03 17.1519C307.571 17.7944 307.058 18.1157 306.492 18.1157C305.88 18.1157 305.421 17.8327 305.115 17.2666C304.809 16.7005 304.595 16.3716 304.473 16.2798C304.35 16.1727 304.22 16.1191 304.082 16.1191C303.929 16.1191 303.769 16.165 303.6 16.2568C303.264 16.4404 302.82 16.8918 302.269 17.6108C301.734 18.3146 301.068 19.5003 300.273 21.168C299.477 22.8356 298.858 24.2508 298.414 25.4136C297.97 26.561 297.351 28.7565 296.555 32H291.001L294.788 16.7847C295.063 15.6525 295.201 14.9028 295.201 14.5356C295.201 14.1226 295.125 13.8013 294.972 13.5718C294.834 13.3423 294.635 13.174 294.375 13.0669C294.13 12.9598 293.61 12.9062 292.814 12.9062L293.021 12.2407L299.952 10.7261H301.328ZM329.126 10.7261C330.335 10.7261 331.467 11.0091 332.523 11.5752C333.594 12.126 334.397 12.8986 334.933 13.8931C335.483 14.8875 335.759 15.9891 335.759 17.1978C335.759 19.6763 335.063 22.1548 333.67 24.6333C332.293 27.1118 330.473 29.0701 328.208 30.5083C325.944 31.9312 323.665 32.6426 321.37 32.6426C319.289 32.6426 317.675 32.0229 316.527 30.7837C315.395 29.5444 314.829 28.0298 314.829 26.2397C314.829 24.1131 315.25 22.1242 316.091 20.2729C316.948 18.4064 318.027 16.7847 319.327 15.4077C320.643 14.0155 322.15 12.891 323.848 12.0342C325.546 11.1621 327.306 10.7261 329.126 10.7261ZM328.186 11.9424C327.375 11.9424 326.701 12.1795 326.166 12.6538C325.095 13.6177 323.886 15.8743 322.54 19.4238C321.194 22.958 320.52 26.1479 320.52 28.9937C320.52 29.6974 320.735 30.2788 321.163 30.7378C321.591 31.1968 322.096 31.4263 322.678 31.4263C323.274 31.4263 323.802 31.2427 324.261 30.8755C324.934 30.3247 325.761 29.0931 326.74 27.1807C327.719 25.2529 328.522 23.134 329.149 20.8237C329.777 18.4982 330.09 16.3716 330.09 14.4438C330.09 13.6483 329.899 13.0363 329.517 12.6079C329.134 12.1642 328.69 11.9424 328.186 11.9424ZM354.836 10.7261L351.898 20.5942C353.872 17.5649 355.31 15.5225 356.213 14.4668C357.544 12.9215 358.638 11.9118 359.495 11.4375C360.367 10.9632 361.239 10.7261 362.111 10.7261C363.105 10.7261 363.824 11.0244 364.268 11.6211C364.712 12.2178 364.934 12.8757 364.934 13.5947C364.934 14.3444 364.727 15.446 364.314 16.8994L363.281 20.5942C365.27 17.5343 366.701 15.4995 367.573 14.4897C368.919 12.9292 370.09 11.8735 371.084 11.3228C371.772 10.925 372.507 10.7261 373.287 10.7261C374.098 10.7261 374.771 11.0015 375.307 11.5522C375.857 12.0877 376.133 12.7915 376.133 13.6636C376.133 14.6427 375.903 15.9126 375.444 17.4731L372.897 26.0332C372.515 27.3031 372.323 28.1216 372.323 28.4888C372.323 28.6112 372.369 28.7259 372.461 28.833C372.568 28.9401 372.683 28.9937 372.805 28.9937C372.974 28.9937 373.119 28.9401 373.241 28.833C373.792 28.3893 374.373 27.7391 374.985 26.8823C375.123 26.6987 375.33 26.4157 375.605 26.0332L376.385 26.5381C375.33 28.5117 374.167 29.9575 372.897 30.8755C371.642 31.7935 370.48 32.2524 369.409 32.2524C368.475 32.2524 367.726 32 367.16 31.4951C366.594 30.9749 366.311 30.3706 366.311 29.6821C366.311 29.0243 366.502 28.0298 366.884 26.6987L369.478 17.7485C369.829 16.5093 370.005 15.7367 370.005 15.4307C370.005 15.3236 369.952 15.2241 369.845 15.1323C369.738 15.0252 369.631 14.9717 369.523 14.9717C369.325 14.9717 369.126 15.0176 368.927 15.1094C368.636 15.2624 368.185 15.6602 367.573 16.3027C366.976 16.9453 366.112 18.1004 364.98 19.7681C363.847 21.4204 363.059 22.7132 362.616 23.6465C362.187 24.5798 361.759 25.7884 361.331 27.2725L359.931 32H354.125L358.416 17.0142C358.646 16.2033 358.76 15.6449 358.76 15.3389C358.76 15.2318 358.707 15.1323 358.6 15.0405C358.508 14.9487 358.408 14.9028 358.301 14.9028C357.735 14.9028 356.84 15.6449 355.616 17.1289C353.75 19.4238 352.051 22.1854 350.522 25.4136L348.663 32H342.811L347.125 17.2437C347.553 15.7902 347.768 14.7575 347.768 14.1455C347.768 13.9007 347.706 13.6942 347.584 13.5259C347.462 13.3423 347.263 13.2046 346.987 13.1128C346.712 13.0057 346.184 12.9521 345.404 12.9521L345.633 12.0801L353.459 10.7261H354.836ZM8.49463 44.73L8.74707 43.8809H23.9395L23.6411 44.73C22.2642 44.73 21.2085 45.036 20.4741 45.6479C19.755 46.2599 19.1201 47.5374 18.5693 49.4805L12.8779 69.4004C12.4648 70.8079 12.2583 71.7489 12.2583 72.2231C12.2583 72.7739 12.4725 73.2023 12.9009 73.5083C13.4517 73.9061 14.492 74.1203 16.022 74.1509L15.7925 75H0.347656L0.600098 74.1509C2.14535 74.1509 3.27751 73.8602 3.99658 73.2788C4.71566 72.6821 5.36589 71.3893 5.94727 69.4004L11.6846 49.4805C12.0365 48.2565 12.2124 47.3309 12.2124 46.7036C12.2124 46.1375 11.9982 45.6938 11.5698 45.3726C11.1414 45.0513 10.1164 44.8371 8.49463 44.73ZM38.0367 53.7261L35.191 63.5713C37.1034 60.695 38.5339 58.729 39.4825 57.6733C40.8748 56.1434 42.0758 55.103 43.0855 54.5522C44.0953 54.0015 45.0439 53.7261 45.9312 53.7261C46.7268 53.7261 47.4076 54.0244 47.9737 54.6211C48.5398 55.2025 48.8228 55.9674 48.8228 56.916C48.8228 57.7728 48.6392 58.8132 48.2721 60.0371L45.3346 69.8364C45.0898 70.6932 44.9674 71.2516 44.9674 71.5117C44.9674 71.6647 45.0209 71.8024 45.128 71.9248C45.2504 72.0472 45.3728 72.1084 45.4952 72.1084C45.6482 72.1084 45.8088 72.0472 45.9771 71.9248C46.5126 71.4811 47.0557 70.8538 47.6065 70.043C47.7442 69.8288 47.9661 69.5075 48.2721 69.0791L49.1441 69.6069C46.8951 73.3859 44.5313 75.2754 42.0528 75.2754C41.1042 75.2754 40.3622 75.0306 39.8267 74.541C39.2913 74.0514 39.0235 73.4395 39.0235 72.7051C39.0235 72.0625 39.2071 71.1063 39.5743 69.8364L42.4429 60.0371C42.6418 59.3945 42.7413 58.9202 42.7413 58.6143C42.7413 58.446 42.6724 58.3006 42.5347 58.1782C42.3971 58.0405 42.2364 57.9717 42.0528 57.9717C41.4714 57.9717 40.7677 58.3695 39.9415 59.165C37.8302 61.1846 35.7877 64.1909 33.814 68.1841L31.9322 75H26.0802L30.3717 60.2666C30.7847 58.8132 30.9913 57.7804 30.9913 57.1685C30.9913 56.9084 30.9301 56.6942 30.8077 56.5259C30.6853 56.3423 30.4864 56.2046 30.211 56.1128C29.9356 56.0057 29.4154 55.9521 28.6505 55.9521L28.9029 55.0801L36.6368 53.7261H38.0367ZM67.3722 43.1694C68.3208 43.1694 69.1164 43.4984 69.7589 44.1562C70.4168 44.8141 70.7458 45.6097 70.7458 46.543C70.7458 47.4762 70.4168 48.2718 69.7589 48.9297C69.1011 49.5876 68.3055 49.9165 67.3722 49.9165C66.4543 49.9165 65.6663 49.5876 65.0085 48.9297C64.3506 48.2718 64.0216 47.4762 64.0216 46.543C64.0216 45.6097 64.3429 44.8141 64.9855 44.1562C65.6434 43.4984 66.439 43.1694 67.3722 43.1694ZM68.7951 53.7261L64.0905 70.043C63.8304 70.9762 63.7004 71.5882 63.7004 71.8789C63.7004 72.0472 63.7692 72.2078 63.9069 72.3608C64.0446 72.4985 64.1899 72.5674 64.3429 72.5674C64.603 72.5674 64.8631 72.4526 65.1232 72.2231C65.8117 71.6571 66.6379 70.632 67.6017 69.1479L68.382 69.6069C66.0718 73.6307 63.6162 75.6426 61.0153 75.6426C60.0208 75.6426 59.2253 75.3672 58.6286 74.8164C58.0472 74.2503 57.7565 73.5389 57.7565 72.6821C57.7565 72.116 57.8865 71.397 58.1466 70.5249L61.3366 59.5552C61.6426 58.4995 61.7956 57.7039 61.7956 57.1685C61.7956 56.8319 61.6502 56.5335 61.3595 56.2734C61.0688 56.0133 60.6711 55.8833 60.1662 55.8833C59.9367 55.8833 59.6613 55.891 59.34 55.9062L59.6383 54.9883L67.4181 53.7261H68.7951ZM88.5378 48.1265L86.7019 54.3687H89.7082L88.905 57.0078H85.9446L82.1121 70.3184C81.8673 71.1445 81.7449 71.7718 81.7449 72.2002C81.7449 72.3991 81.8137 72.575 81.9514 72.728C82.0891 72.8657 82.2421 72.9346 82.4104 72.9346C82.6705 72.9346 82.9382 72.8275 83.2136 72.6133C83.9174 72.0778 84.7359 71.1445 85.6692 69.8135L86.4724 70.3184C85.4167 72.1543 84.254 73.5007 82.9841 74.3574C81.7143 75.2142 80.4674 75.6426 79.2434 75.6426C78.203 75.6426 77.3922 75.3825 76.8108 74.8623C76.2447 74.3268 75.9617 73.6536 75.9617 72.8428C75.9617 71.9554 76.1606 70.8156 76.5583 69.4233L80.1843 57.0078H77.0632L77.5222 55.3096C79.4805 54.5905 81.1329 53.749 82.4792 52.7852C83.8256 51.8213 85.4473 50.2684 87.3445 48.1265H88.5378ZM103.874 43.1694C104.823 43.1694 105.618 43.4984 106.261 44.1562C106.919 44.8141 107.248 45.6097 107.248 46.543C107.248 47.4762 106.919 48.2718 106.261 48.9297C105.603 49.5876 104.808 49.9165 103.874 49.9165C102.956 49.9165 102.168 49.5876 101.511 48.9297C100.853 48.2718 100.524 47.4762 100.524 46.543C100.524 45.6097 100.845 44.8141 101.488 44.1562C102.145 43.4984 102.941 43.1694 103.874 43.1694ZM105.297 53.7261L100.593 70.043C100.333 70.9762 100.202 71.5882 100.202 71.8789C100.202 72.0472 100.271 72.2078 100.409 72.3608C100.547 72.4985 100.692 72.5674 100.845 72.5674C101.105 72.5674 101.365 72.4526 101.625 72.2231C102.314 71.6571 103.14 70.632 104.104 69.1479L104.884 69.6069C102.574 73.6307 100.118 75.6426 97.5174 75.6426C96.5229 75.6426 95.7274 75.3672 95.1307 74.8164C94.5493 74.2503 94.2586 73.5389 94.2586 72.6821C94.2586 72.116 94.3887 71.397 94.6488 70.5249L97.8387 59.5552C98.1447 58.4995 98.2977 57.7039 98.2977 57.1685C98.2977 56.8319 98.1523 56.5335 97.8616 56.2734C97.571 56.0133 97.1732 55.8833 96.6683 55.8833C96.4388 55.8833 96.1634 55.891 95.8421 55.9062L96.1404 54.9883L103.92 53.7261H105.297ZM134.082 54.0474L129.63 69.3086L129.171 71.1675C129.125 71.397 129.102 71.5653 129.102 71.6724C129.102 71.856 129.163 72.0166 129.286 72.1543C129.423 72.292 129.561 72.3608 129.699 72.3608C130.02 72.3608 130.464 72.116 131.03 71.6265C131.259 71.4276 131.81 70.7238 132.682 69.5151L133.485 69.9282C132.399 71.9172 131.236 73.3706 129.997 74.2886C128.773 75.1912 127.45 75.6426 126.027 75.6426C125.155 75.6426 124.489 75.4207 124.03 74.9771C123.571 74.5181 123.342 73.9443 123.342 73.2559C123.342 72.6592 123.586 71.55 124.076 69.9282L124.627 68.0693C122.852 71.1139 121.146 73.2712 119.509 74.541C118.561 75.2754 117.551 75.6426 116.48 75.6426C115.072 75.6426 114.055 75.0688 113.428 73.9214C112.8 72.7586 112.487 71.4505 112.487 69.9971C112.487 67.8398 113.145 65.369 114.46 62.5845C115.776 59.7847 117.505 57.5356 119.647 55.8374C121.406 54.4299 123.059 53.7261 124.604 53.7261C125.461 53.7261 126.149 53.9785 126.669 54.4834C127.19 54.973 127.572 55.8757 127.817 57.1914L128.643 54.3687L134.082 54.0474ZM126.738 58.4077C126.738 57.1685 126.547 56.2734 126.164 55.7227C125.889 55.3402 125.514 55.1489 125.04 55.1489C124.566 55.1489 124.076 55.3784 123.571 55.8374C122.546 56.786 121.437 58.7137 120.244 61.6206C119.065 64.5122 118.476 67.0137 118.476 69.125C118.476 69.9359 118.607 70.5249 118.867 70.8921C119.142 71.244 119.44 71.4199 119.762 71.4199C120.45 71.4199 121.146 71.0221 121.85 70.2266C122.86 69.0944 123.77 67.7098 124.581 66.0728C126.019 63.1965 126.738 60.6414 126.738 58.4077ZM153.71 48.1265L151.874 54.3687H154.88L154.077 57.0078H151.117L147.284 70.3184C147.039 71.1445 146.917 71.7718 146.917 72.2002C146.917 72.3991 146.986 72.575 147.124 72.728C147.261 72.8657 147.414 72.9346 147.583 72.9346C147.843 72.9346 148.11 72.8275 148.386 72.6133C149.09 72.0778 149.908 71.1445 150.841 69.8135L151.645 70.3184C150.589 72.1543 149.426 73.5007 148.156 74.3574C146.886 75.2142 145.639 75.6426 144.416 75.6426C143.375 75.6426 142.564 75.3825 141.983 74.8623C141.417 74.3268 141.134 73.6536 141.134 72.8428C141.134 71.9554 141.333 70.8156 141.73 69.4233L145.356 57.0078H142.235L142.694 55.3096C144.653 54.5905 146.305 53.749 147.651 52.7852C148.998 51.8213 150.619 50.2684 152.517 48.1265H153.71ZM169.046 43.1694C169.995 43.1694 170.791 43.4984 171.433 44.1562C172.091 44.8141 172.42 45.6097 172.42 46.543C172.42 47.4762 172.091 48.2718 171.433 48.9297C170.775 49.5876 169.98 49.9165 169.046 49.9165C168.128 49.9165 167.341 49.5876 166.683 48.9297C166.025 48.2718 165.696 47.4762 165.696 46.543C165.696 45.6097 166.017 44.8141 166.66 44.1562C167.318 43.4984 168.113 43.1694 169.046 43.1694ZM170.469 53.7261L165.765 70.043C165.505 70.9762 165.375 71.5882 165.375 71.8789C165.375 72.0472 165.443 72.2078 165.581 72.3608C165.719 72.4985 165.864 72.5674 166.017 72.5674C166.277 72.5674 166.537 72.4526 166.797 72.2231C167.486 71.6571 168.312 70.632 169.276 69.1479L170.056 69.6069C167.746 73.6307 165.29 75.6426 162.69 75.6426C161.695 75.6426 160.899 75.3672 160.303 74.8164C159.721 74.2503 159.431 73.5389 159.431 72.6821C159.431 72.116 159.561 71.397 159.821 70.5249L163.011 59.5552C163.317 58.4995 163.47 57.7039 163.47 57.1685C163.47 56.8319 163.324 56.5335 163.034 56.2734C162.743 56.0133 162.345 55.8833 161.84 55.8833C161.611 55.8833 161.336 55.891 161.014 55.9062L161.313 54.9883L169.092 53.7261H170.469ZM183.213 75.6426H182.386C182.432 74.388 182.455 73.4395 182.455 72.7969C182.455 71.0527 182.318 68.536 182.042 65.2466C181.782 61.9419 181.484 59.7388 181.147 58.6372C180.887 57.8263 180.543 57.2373 180.114 56.8701C179.824 56.6253 179.449 56.5029 178.99 56.5029C178.73 56.5029 178.416 56.5335 178.049 56.5947V55.7686L185.691 53.7261C187.221 57.9028 187.963 63.25 187.917 69.7676C190.166 67.6257 191.711 65.8892 192.553 64.5581C193.41 63.2271 193.838 62.1178 193.838 61.2305C193.838 60.5267 193.57 59.8153 193.035 59.0962C192.515 58.3618 192.186 57.8416 192.048 57.5356C191.926 57.2297 191.864 56.8931 191.864 56.5259C191.864 55.7303 192.124 55.0648 192.645 54.5293C193.165 53.9938 193.823 53.7261 194.618 53.7261C195.46 53.7261 196.11 53.9938 196.569 54.5293C197.212 55.279 197.533 56.1663 197.533 57.1914C197.533 58.2471 197.342 59.2874 196.959 60.3125C196.592 61.3223 195.949 62.5233 195.031 63.9155C194.129 65.2925 193.119 66.547 192.002 67.6792C189.952 69.7599 187.022 72.4144 183.213 75.6426ZM210.138 66.394C210.001 67.3885 209.932 68.207 209.932 68.8496C209.932 69.9971 210.261 70.915 210.919 71.6035C211.592 72.292 212.487 72.6362 213.604 72.6362C214.675 72.6362 215.746 72.3761 216.817 71.856C217.903 71.3358 219.157 70.4255 220.58 69.125L221.269 69.7446C219.509 71.8713 217.796 73.3859 216.128 74.2886C214.461 75.1912 212.617 75.6426 210.597 75.6426C208.042 75.6426 206.275 75.0306 205.296 73.8066C204.317 72.5827 203.827 71.1675 203.827 69.561C203.827 67.0519 204.554 64.5428 206.008 62.0337C207.476 59.5246 209.465 57.5127 211.974 55.998C214.499 54.4834 217.031 53.7261 219.571 53.7261C220.856 53.7261 221.827 54.0321 222.485 54.644C223.143 55.256 223.472 56.0286 223.472 56.9619C223.472 58.0788 223.151 59.165 222.508 60.2207C221.621 61.6589 220.504 62.8216 219.157 63.709C217.811 64.5811 216.304 65.2466 214.636 65.7056C213.52 66.0116 212.02 66.241 210.138 66.394ZM210.345 65.2007C211.691 65.0018 212.732 64.734 213.466 64.3975C214.216 64.0456 214.942 63.4948 215.646 62.7451C216.365 61.9801 216.985 61.0239 217.505 59.8765C218.025 58.7137 218.285 57.6274 218.285 56.6177C218.285 56.1893 218.163 55.8527 217.918 55.6079C217.689 55.3631 217.39 55.2407 217.023 55.2407C216.289 55.2407 215.463 55.7533 214.545 56.7783C212.862 58.6449 211.462 61.4523 210.345 65.2007Z" fill="white"/>
</svg>
